name C:\Users\u0101727\Documents\MyRepositories\upper-imu-dc\Results\main_tracking\Case_29\kinematics.mot
datacolumns 43
datarows 4
range 1.50000000 1.53000000
endheader 
time	clav_prot	clav_elev	scapula_abduction	scapula_elevation	scapula_upward_rot	scapula_winging	plane_elv	shoulder_elv	axial_rot	TrapeziusScapula_M/activation	TrapeziusScapula_S/activation	TrapeziusScapula_I/activation	TrapeziusClavicle_S/activation	SerratusAnterior_I/activation	SerratusAnterior_M/activation	SerratusAnterior_S/activation	Rhomboideus_S/activation	Rhomboideus_I/activation	LevatorScapulae/activation	Coracobrachialis/activation	DeltoideusClavicle_A/activation	DeltoideusScapula_P/activation	DeltoideusScapula_M/activation	LatissimusDorsi_S/activation	LatissimusDorsi_M/activation	LatissimusDorsi_I/activation	PectoralisMajorClavicle_S/activation	PectoralisMajorThorax_I/activation	PectoralisMajorThorax_M/activation	TeresMajor/activation	Infraspinatus_I/activation	Infraspinatus_S/activation	PectoralisMinor/activation	TeresMinor/activation	Subscapularis_S/activation	Subscapularis_M/activation	Subscapularis_I/activation	Supraspinatus_P/activation	Supraspinatus_A/activation	TRIlong/activation	BIC_long/activation	BIC_brevis/activation	
          1.50000000	        -22.98085032	          0.79762824	          0.95909195	         -5.10446233	         35.81446514	         -1.58317708	         67.84552499	         54.07622144	        -23.46839524	          0.01001044	          0.01001017	          0.01001197	          0.01001158	          0.01001161	          0.01001138	          0.01001187	          0.01001223	          0.01001282	          0.01001202	          0.01001202	          0.01001143	          0.01001241	          0.01001112	          0.01001218	          0.01001223	          0.01001222	          0.01001182	          0.01001219	          0.01001208	          0.01001288	          0.01003171	          0.01000755	          0.01001338	          0.01001379	          0.01001186	          0.01001188	          0.01001174	          0.01001090	          0.01001156	          0.01001317	          0.01001122	          0.01001182	
          1.51000000	        -23.09379077	          0.94225755	          1.01277303	         -5.05223258	         36.14097401	         -1.69231283	         67.98043752	         54.46722576	        -23.00785494	          0.01001128	          0.01001120	          0.01001079	          0.01001070	          0.01001066	          0.01001063	          0.01001064	          0.01001102	          0.01001108	          0.01001091	          0.01001061	          0.01001066	          0.01001063	          0.01001073	          0.01001078	          0.01001077	          0.01001067	          0.01001064	          0.01001073	          0.01001064	          0.01001063	          0.01000943	          0.01001080	          0.01001052	          0.01001040	          0.01001071	          0.01001064	          0.01001075	          0.01001080	          0.01001072	          0.01001056	          0.01001073	          0.01001069	
          1.52000000	        -23.17224470	          1.09112868	          1.08243828	         -4.99840953	         36.46280645	         -1.79956667	         68.11138434	         54.85780876	        -22.56838764	          0.01001054	          0.01001040	          0.01001081	          0.01001074	          0.01001091	          0.01001076	          0.01001090	          0.01001059	          0.01001054	          0.01001060	          0.01001080	          0.01001088	          0.01001076	          0.01001081	          0.01001077	          0.01001075	          0.01001084	          0.01001088	          0.01001076	          0.01001084	          0.01001072	          0.01001142	          0.01001093	          0.01001084	          0.01001082	          0.01001092	          0.01001078	          0.01001090	          0.01001087	          0.01001088	          0.01001086	          0.01001092	          0.01001087	
          1.53000000	        -23.22680789	          1.23963678	          1.18703643	         -4.94153951	         36.77477307	         -1.90437877	         68.23356421	         55.24770836	        -22.17289859	          0.01001067	          0.01001064	          0.01001081	          0.01001081	          0.01001092	          0.01001095	          0.01001075	          0.01001059	          0.01001061	          0.01001064	          0.01001081	          0.01001086	          0.01001095	          0.01001086	          0.01001084	          0.01001086	          0.01001084	          0.01001083	          0.01001086	          0.01001093	          0.01001076	          0.01001123	          0.01001083	          0.01001089	          0.01001063	          0.01001087	          0.01001080	          0.01001078	          0.01001093	          0.01001087	          0.01001073	          0.01001090	          0.01001075	
